<svg xmlns="http://www.w3.org/2000/svg" xmlns:xlink="http://www.w3.org/1999/xlink" width="208.064" height="89.269" viewBox="0 0 208.064 89.269"><defs><style>.a{fill:#fa7300;}.b{fill:url(#a);}.c{fill:#4660b5;}.d{fill:#7647a5;}.e{fill:#2ba731;}.f{fill:#de0000;}.g{fill:#fcc800;}.h{fill:#ff6100;}.i{fill:#fff;}</style><linearGradient id="a" y1="0.5" x2="1" y2="0.5" gradientUnits="objectBoundingBox"><stop offset="0" stop-color="#fff" stop-opacity="0.4"/><stop offset="0.999" stop-color="#fff" stop-opacity="0.102"/></linearGradient></defs><g transform="translate(-161.359 -287)"><g transform="translate(161.359 287)"><g transform="translate(26.72)"><path class="a" d="M244.8,287H227.84l-8.481,14.69,8.481,14.69H244.8l8.481-14.69Z" transform="translate(-219.359 -287)"/><path class="b" d="M249.923,302.36a22.3,22.3,0,0,1,3.464.272L245.516,289h-15.9l-7.95,13.768,7.751,13.424A22.115,22.115,0,0,1,249.923,302.36Z" transform="translate(-220.604 -288.079)"/></g><g transform="translate(26.72 59.889)"><path class="c" d="M244.8,417H227.84l-8.481,14.69,8.481,14.69H244.8l8.481-14.69Z" transform="translate(-219.359 -417)"/><path class="b" d="M249.923,432.36a22.3,22.3,0,0,1,3.464.272L245.516,419h-15.9l-7.95,13.768,7.751,13.424A22.115,22.115,0,0,1,249.923,432.36Z" transform="translate(-220.604 -418.079)"/></g><g transform="translate(0 45.147)"><path class="d" d="M186.8,385H169.84l-8.481,14.69,8.481,14.69H186.8l8.481-14.69Z" transform="translate(-161.359 -385)"/><path class="b" d="M191.923,400.36a22.3,22.3,0,0,1,3.464.272L187.516,387h-15.9l-7.95,13.768,7.751,13.424A22.115,22.115,0,0,1,191.923,400.36Z" transform="translate(-162.604 -386.079)"/></g><g transform="translate(52.979 45.147)"><path class="e" d="M301.8,385H284.84l-8.481,14.69,8.481,14.69H301.8l8.481-14.69Z" transform="translate(-276.359 -385)"/><path class="b" d="M306.923,400.36a22.3,22.3,0,0,1,3.464.272L302.516,387h-15.9l-7.95,13.768,7.751,13.424A22.115,22.115,0,0,1,306.923,400.36Z" transform="translate(-277.604 -386.079)"/></g><g transform="translate(0 14.742)"><path class="f" d="M186.8,319H169.84l-8.481,14.69,8.481,14.69H186.8l8.481-14.69Z" transform="translate(-161.359 -319)"/><path class="b" d="M191.923,334.36a22.3,22.3,0,0,1,3.464.272L187.516,321h-15.9l-7.95,13.768,7.751,13.424A22.115,22.115,0,0,1,191.923,334.36Z" transform="translate(-162.604 -320.079)"/></g><g transform="translate(52.979 14.742)"><path class="g" d="M301.8,319H284.84l-8.481,14.69,8.481,14.69H301.8l8.481-14.69Z" transform="translate(-276.359 -319)"/><path class="b" d="M306.923,334.36a22.3,22.3,0,0,1,3.464.272L302.516,321h-15.9l-7.95,13.768,7.751,13.424A22.115,22.115,0,0,1,306.923,334.36Z" transform="translate(-277.604 -320.079)"/></g></g><g transform="translate(255.79 307.613)"><path class="h" d="M389.246,360.92h-3.881V347.188H370.2V360.92h-3.861V331.744H370.2v11.981h15.165V331.744h3.881Z" transform="translate(-366.339 -331.744)"/><path class="h" d="M436.566,370.294a9.944,9.944,0,0,1-7.483-2.916q-2.826-2.915-2.826-8.13,0-5.174,2.736-8.11a10.323,10.323,0,0,1,14.369-.05q2.7,2.886,2.7,8.16v.9h-15.9a8.161,8.161,0,0,0,2.02,5.433,5.982,5.982,0,0,0,4.388,1.771,6.487,6.487,0,0,0,3.552-1.005,3.382,3.382,0,0,0,1.662-2.856h3.881a7,7,0,0,1-2.956,5.035A10.4,10.4,0,0,1,436.566,370.294Zm5.533-13.1a7.657,7.657,0,0,0-2.05-4.558,5.749,5.749,0,0,0-7.762-.01,7.478,7.478,0,0,0-2.05,4.567Z" transform="translate(-398.654 -340.621)"/><path class="h" d="M492.78,370.356h-4.657l-5.254-8.239-5.254,8.239h-4.657l7.8-10.966-7.185-10.15h4.657l4.637,7.383,4.637-7.383h4.657l-7.185,10.11Z" transform="translate(-423.84 -341.18)"/><path class="h" d="M534.547,367.627a10.405,10.405,0,0,1-7.383,2.667,7.781,7.781,0,0,1-5.175-1.7,5.465,5.465,0,0,1-2.03-4.388q0-7.4,12.757-7.4h1.831a16.068,16.068,0,0,0-.239-3.293,2.734,2.734,0,0,0-1.333-1.7,6.851,6.851,0,0,0-3.483-.677q-5.015,0-5.174,3.583h-3.742q.418-6.508,9.115-6.508a10.784,10.784,0,0,1,6.329,1.612q2.269,1.612,2.269,6.329V369.8h-3.742Zm0-3.383v-4.677H531.98q-8.16,0-8.16,4.438a2.876,2.876,0,0,0,1.194,2.478,5.388,5.388,0,0,0,3.224.866,8.147,8.147,0,0,0,3.583-.836A6.878,6.878,0,0,0,534.547,364.244Z" transform="translate(-449.188 -340.621)"/><path class="h" d="M583.612,358.392a7.967,7.967,0,0,1-12.439.08,12.688,12.688,0,0,1-2.269-7.941q0-5.174,2.537-8.189a7.99,7.99,0,0,1,6.379-3.015,8.4,8.4,0,0,1,5.791,2.109v-9.692h3.742V360.92h-3.742Zm0-3.543V344.819a7.455,7.455,0,0,0-5.553-2.567,4.47,4.47,0,0,0-3.851,2.08q-1.444,2.08-1.443,6.2a10.6,10.6,0,0,0,1.363,5.921,4.308,4.308,0,0,0,3.772,2.02Q581.044,358.472,583.612,354.85Z" transform="translate(-475.586 -331.744)"/></g><rect class="h" width="113.789" height="11.978" rx="5.989" transform="translate(255.634 338.597)"/><g transform="translate(284.764 342.284)"><path class="i" d="M435.583,407l-1.366,4.932h-.626l-1.184-4.286-1.187,4.286h-.626L429.232,407h.686l.985,4.017,1.11-4.017h.784l1.11,4.017.985-4.017Z" transform="translate(-429.232 -407.003)"/><path class="i" d="M449.7,407l-1.366,4.932h-.625l-1.184-4.286-1.187,4.286h-.626L443.347,407h.686l.985,4.017,1.11-4.017h.784l1.11,4.017.985-4.017Z" transform="translate(-436.844 -407.003)"/><path class="i" d="M463.813,407l-1.366,4.932h-.626l-1.184-4.286-1.188,4.286h-.626L457.462,407h.686l.985,4.017,1.11-4.017h.784l1.11,4.017.986-4.017Z" transform="translate(-444.457 -407.003)"/><path class="i" d="M473.413,416.9h-.69v-.69h.69Z" transform="translate(-452.687 -411.969)"/><path class="i" d="M480.619,411.935h-.656v-2.321H477.4v2.321h-.652V407h.652v2.025h2.563V407h.656Z" transform="translate(-454.858 -407.003)"/><path class="i" d="M491.223,411.935h-3.677V407h3.562v.585H488.2V409.1h2.722v.585H488.2v1.669h3.024Z" transform="translate(-460.682 -407.003)"/><path class="i" d="M500.924,411.935h-.8l-1.46-2.089-1.466,2.089h-.8l1.894-2.6L496.584,407h.8l1.275,1.823L499.938,407h.8l-1.712,2.335Z" transform="translate(-465.455 -407.003)"/><path class="i" d="M510.891,411.935h-.737l-.572-1.5h-2.065l-.545,1.5h-.69L508.176,407h.7Zm-1.5-2.018-.867-2.288-.828,2.288Z" transform="translate(-470.786 -407.003)"/><path class="i" d="M517.469,407h1.564a2.189,2.189,0,0,1,2.513,2.439,2.212,2.212,0,0,1-2.513,2.493h-1.564Zm.653,4.347h.9a1.774,1.774,0,0,0,1.464-.5,2.244,2.244,0,0,0,.39-1.408,2.136,2.136,0,0,0-.388-1.369,1.8,1.8,0,0,0-1.465-.485h-.9Z" transform="translate(-476.819 -407.003)"/><path class="i" d="M529.09,416.9h-.69v-.69h.69Z" transform="translate(-482.715 -411.969)"/><path class="i" d="M532.424,407h1.564a2.189,2.189,0,0,1,2.513,2.439,2.212,2.212,0,0,1-2.513,2.493h-1.564Zm.652,4.347h.9a1.773,1.773,0,0,0,1.463-.5,2.241,2.241,0,0,0,.39-1.408,2.139,2.139,0,0,0-.388-1.369,1.8,1.8,0,0,0-1.465-.485h-.9Z" transform="translate(-484.885 -407.003)"/><path class="i" d="M546.9,411.935h-3.677V407h3.563v.585h-2.91V409.1H546.6v.585h-2.721v1.669H546.9Z" transform="translate(-490.709 -407.003)"/></g></g></svg>